# xmcd
# 
# Track frame offsets:
#     150
#     17265
#     30890
#     41856
#     56153
#     77649
#     85724
#     102933
#     118533
#     137791
#     151127
# 
# Disc length: 2200
# 
# Revision: 0
# Processed by: cddbd v1.5.2PL0 Copyright (c) Steve Scherf et al.
# Submitted via: fre:ac v1.0.17
# 
DISCID=7908960b
DTITLE=Alabama Shakes - Boys and Girls
DYEAR=2012
DGENRE=Blues
TTITLE0=Hold On
TTITLE1=I Found You
TTITLE2=Hang Loose
TTITLE3=Rise to the Sun
TTITLE4=You Ain't Alone
TTITLE5=Goin' to the Party
TTITLE6=Heartbreaker
TTITLE7=Boys and Girls
TTITLE8=Be Mine
TTITLE9=I Ain't the Same
TTITLE10=On Your Way
EXTD=
EXTT0=
EXTT1=
EXTT2=
EXTT3=
EXTT4=
EXTT5=
EXTT6=
EXTT7=
EXTT8=
EXTT9=
EXTT10=
PLAYORDER=
